<?xml version="1.0" standalone="no"?>
<!DOCTYPE svg PUBLIC "-//W3C//DTD SVG 20010904//EN"
 "http://www.w3.org/TR/2001/REC-SVG-20010904/DTD/svg10.dtd">
<svg version="1.0" xmlns="http://www.w3.org/2000/svg"
 width="901.000000pt" height="1746.000000pt" viewBox="0 0 901.000000 1746.000000"
 preserveAspectRatio="xMidYMid meet">

<g transform="translate(0.000000,1746.000000) scale(0.100000,-0.100000)"
fill="#1a4480" stroke="none">
<path d="M4410 14164 c-19 -7 -174 -65 -345 -130 -378 -142 -989 -375 -1460
-557 -450 -173 -810 -312 -1260 -482 -198 -76 -366 -140 -374 -145 -15 -8 18
-22 427 -185 l272 -109 0 -189 0 -189 -39 -39 c-39 -37 -61 -88 -61 -139 1
-34 32 -100 62 -128 l24 -22 -42 -148 c-23 -81 -54 -198 -70 -260 -28 -111
-29 -112 -9 -127 59 -46 99 -59 201 -63 93 -4 105 -2 155 22 103 50 100 19 29
316 l-62 262 25 26 c34 36 47 73 47 135 0 59 -22 103 -69 138 l-31 23 0 159 0
158 23 -7 c12 -4 164 -64 337 -134 l315 -128 3 149 3 148 87 42 c416 196 782
321 1122 383 240 43 340 51 640 51 245 -1 306 -4 430 -23 248 -39 506 -106
710 -184 118 -45 434 -197 426 -205 -2 -3 -40 6 -83 20 -285 93 -603 164 -898
199 -168 20 -674 17 -850 -5 -389 -48 -852 -178 -1157 -324 -54 -25 -107 -56
-119 -69 -13 -13 -31 -61 -46 -116 -50 -194 -175 -729 -171 -734 4 -4 186 65
888 336 551 212 902 340 935 340 9 0 60 -16 113 -36 246 -92 995 -377 1349
-513 216 -83 395 -151 397 -151 3 0 7 154 8 343 l3 342 145 58 c119 47 1366
536 1435 561 l20 8 -20 8 c-11 4 -141 55 -290 113 -148 58 -421 164 -605 237
-184 73 -598 233 -920 357 -322 124 -646 249 -720 278 -348 135 -625 241 -730
280 -63 24 -126 48 -140 53 -18 7 -36 6 -60 -4z"/>
<path d="M8765 12241 c-82 -32 -287 -111 -455 -175 -294 -114 -966 -369 -1042
-397 -21 -7 -35 -16 -30 -20 6 -6 159 -57 527 -177 28 -9 53 -19 57 -22 11 -8
-318 -217 -511 -324 -211 -119 -595 -314 -776 -395 -263 -119 -680 -303 -1055
-466 -1515 -659 -2397 -1129 -3084 -1645 -492 -369 -867 -785 -1043 -1157 -99
-209 -124 -432 -71 -639 69 -271 239 -589 474 -890 44 -55 105 -129 136 -163
l56 -63 -5 134 c-17 415 120 922 368 1361 382 676 1027 1305 2014 1967 476
318 756 488 1570 952 376 215 544 306 1135 621 123 66 203 109 240 131 189
110 -589 -462 -1275 -939 -1320 -918 -1992 -1492 -2454 -2094 -165 -215 -352
-521 -444 -726 -314 -700 -339 -1359 -77 -1972 90 -209 227 -431 330 -533 112
-112 993 -680 1054 -680 24 0 317 173 561 332 202 131 684 493 672 504 -1 2
-45 19 -97 39 -220 84 -467 222 -656 366 -115 87 -309 287 -393 405 -114 161
-206 388 -247 609 -26 138 -26 487 -1 625 75 398 204 697 486 1121 302 456
786 991 1371 1519 328 295 537 477 860 750 313 264 721 630 915 822 99 98 183
174 186 170 4 -4 75 -131 159 -282 84 -151 158 -281 165 -289 11 -11 19 3 45
90 46 152 253 807 317 1004 68 212 183 575 183 581 0 8 -15 3 -165 -55z"/>
<path d="M4315 11960 c-55 -20 -273 -103 -485 -183 -212 -80 -569 -216 -795
-302 -225 -87 -455 -174 -510 -195 -55 -21 -248 -95 -430 -164 -341 -131 -621
-238 -950 -361 l-190 -71 -12 -170 c-17 -249 -16 -888 2 -1129 28 -378 67
-686 130 -1030 36 -192 144 -645 154 -645 4 0 26 34 51 76 222 377 701 831
1294 1229 533 357 1293 758 2173 1145 105 47 190 86 189 87 -10 10 -501 -136
-796 -236 -584 -198 -1015 -375 -1490 -612 -385 -193 -708 -390 -945 -577 -99
-79 -100 -79 -107 -54 -9 32 -44 327 -57 482 -35 396 -40 1002 -10 1021 8 4
97 40 199 78 224 84 628 239 1125 431 204 79 640 246 970 371 l600 228 195
-75 c107 -42 269 -105 360 -141 91 -36 373 -145 628 -244 l463 -178 142 63
c201 89 580 267 590 276 10 9 -132 66 -716 286 -227 85 -486 184 -577 219 -91
35 -302 116 -470 180 -168 63 -375 142 -461 175 -86 33 -158 60 -160 59 -2 0
-49 -18 -104 -39z"/>
<path d="M7724 10609 c-155 -145 -370 -333 -679 -594 -451 -379 -766 -669
-1116 -1022 -345 -349 -430 -442 -650 -713 -421 -519 -687 -1043 -765 -1505
-24 -142 -24 -430 0 -545 55 -262 158 -466 337 -668 211 -237 460 -398 918
-591 l74 -31 179 177 c706 701 1195 1476 1482 2348 177 540 291 1114 350 1775
26 286 39 645 33 880 -7 266 -28 600 -38 600 -4 0 -60 -50 -125 -111z"/>
</g>
</svg>
