<svg xmlns="http://www.w3.org/2000/svg" viewBox="0 0 512 512">
  <defs>
    <linearGradient id="bg" x1="0%" y1="0%" x2="100%" y2="100%">
      <stop offset="0%" style="stop-color:#1e3a5f"/>
      <stop offset="100%" style="stop-color:#1a365d"/>
    </linearGradient>
  </defs>
  <!-- Rounded background -->
  <rect width="512" height="512" rx="108" fill="url(#bg)"/>
  <!-- Shield shape -->
  <path d="M256 80 L380 130 Q400 140 400 165 L400 280 Q400 360 256 440 Q112 360 112 280 L112 165 Q112 140 132 130 Z" fill="none" stroke="white" stroke-width="24" stroke-linejoin="round"/>
  <path d="M256 80 L380 130 Q400 140 400 165 L400 280 Q400 360 256 440 Q112 360 112 280 L112 165 Q112 140 132 130 Z" fill="white" opacity="0.1"/>
  <!-- Path/road arrows going up -->
  <path d="M200 360 Q220 300 256 260 Q292 220 312 180" fill="none" stroke="white" stroke-width="22" stroke-linecap="round" opacity="0.9"/>
  <path d="M170 340 Q200 290 240 250 Q270 220 290 170" fill="none" stroke="white" stroke-width="16" stroke-linecap="round" opacity="0.5"/>
  <path d="M230 370 Q250 310 275 270 Q300 230 335 190" fill="none" stroke="white" stroke-width="16" stroke-linecap="round" opacity="0.5"/>
  <!-- Arrow head at top -->
  <polygon points="312,180 290,200 320,210" fill="white" opacity="0.9"/>
  <!-- Graduation cap -->
  <polygon points="256,120 196,150 256,175 316,150" fill="white"/>
  <rect x="246" y="175" width="20" height="25" fill="white"/>
  <line x1="196" y1="150" x2="196" y2="185" stroke="white" stroke-width="6" stroke-linecap="round"/>
  <circle cx="196" cy="190" r="6" fill="white"/>
</svg>
